<svg id="Layer_1" enable-background="new 0 0 511.998 511.998" height="512" viewBox="0 0 511.998 511.998" width="512" xmlns="http://www.w3.org/2000/svg"><g><g><path d="m455.756 120.74c-2.5-12.688-9.76-23.622-20.44-30.786-10.681-7.165-23.552-9.732-36.239-7.232-4.166.821-8.137 2.165-11.853 3.965-.22-.463-.441-.915-.659-1.384-12.149-26.074-14.18-42.327-15.663-54.193-.444-3.553-.864-6.909-1.498-10.023-2.868-14.079-15.326-22.473-30.979-20.897-19.553 1.972-39.989 18.16-49.616 45.844-.144-.146-.28-.299-.426-.443-9.054-8.941-20.861-13.697-33.25-13.42-25.422.591-45.984 19.182-48.686 43.124-8.864-9.299-21.573-15.087-35.704-15.087-12.106 0-23.514 4.943-32.122 13.919-6.616 6.899-10.98 15.657-12.592 24.954-7.57-4.998-16.733-7.906-26.609-7.906-11.762 0-22.844 4.801-31.205 13.52-8.699 9.071-13.388 21.448-12.864 33.958l1.106 26.393v104.978c0 24.456 6.686 48.606 13.151 71.961 5.412 19.549 10.554 38.172 12.008 56.624h-2.856c-5.523 0-10 4.477-10 10v93.39c0 5.523 4.477 10 10 10h295.146c5.523 0 10-4.477 10-10v-93.39c0-5.523-4.477-10-10-10h-3.188c.687-50.385 5.457-61.432 19.435-93.769 5.425-12.551 12.177-28.172 20.471-50.164 5.073-13.452 5.203-29.4.428-47.453l37.183-49.833c.1-.134.196-.271.29-.409 7.163-10.682 9.732-23.552 7.231-36.241zm-115.326-100.652c5.438-.553 8.589 1.131 9.375 4.99.481 2.363.837 5.212 1.25 8.511 1.554 12.439 3.904 31.237 17.38 60.16.908 1.948 1.807 3.806 2.69 5.609-.943 1.147-1.843 2.34-2.686 3.583l-67.776 90.835.804-29.966.03-1.479c3.067-3.095 5.229-5.34 7.317-7.51 2.207-2.292 4.291-4.458 7.281-7.448 2.526-2.526 3.513-6.208 2.588-9.66-1.776-6.628-4.216-12.68-6.576-18.533-4.608-11.427-8.96-22.22-8.96-37.794-.001-39.687 21.802-59.737 37.283-61.298zm-114.289 60.049c.284-15.308 13.222-27.595 29.454-27.972.193-.005.386-.007.579-.007 6.709 0 13.136 2.708 18.153 7.662 5.691 5.62 8.906 13.442 8.822 21.362l-3.274 141.694c-.002.089-.003.179-.003.268 0 13.784-12.361 24.582-28.141 24.582-.078 0-.155.001-.232.002-6.988.188-13.714-2.6-18.917-7.78-5.203-5.179-8.279-12.181-8.605-19.44.006-.623-.011-1.247-.03-1.87.364-19.62 1.828-118.881 2.194-138.501zm-73.087 7.833c4.8-5.005 11.081-7.762 17.687-7.762 15.365 0 27.875 11.331 28.481 25.796l4.729 112.85c-.005.604-.005 1.208.013 1.811-.155 6.864-2.909 13.544-7.71 18.552-4.8 5.005-11.081 7.762-17.687 7.762-15.365 0-27.876-11.331-28.481-25.796l-3.618-86.35-1.114-26.572c-.313-7.466 2.494-14.862 7.7-20.291zm-70.406 30.567c4.553-4.748 10.509-7.363 16.77-7.363 14.598 0 26.485 10.752 27.067 24.482v.014l2.617 62.459v.004.007l.001.026c.282 7.079-2.386 14.087-7.325 19.233-4.552 4.744-10.506 7.356-16.764 7.356-14.603 0-26.492-10.76-27.068-24.497l-2.617-62.445c-.294-7.091 2.372-14.118 7.319-19.276zm309.262 129.08c-8.126 21.549-14.774 36.928-20.115 49.286-14.424 33.372-20.292 46.958-21.073 101.705h-79.391c-5.523 0-10 4.477-10 10s4.477 10 10 10h92.577v73.39h-275.148v-73.39h92.57c5.523 0 10-4.477 10-10s-4.477-10-10-10h-79.658c-1.465-21.035-7.208-41.797-12.791-61.96-6.39-23.083-12.426-44.886-12.426-66.625v-34.55c7.923 5.83 17.817 9.283 28.561 9.283 10.073 0 19.648-3.522 27.442-10.01 6.345 18.824 24.587 32.232 46.11 32.232 12.106 0 23.514-4.943 32.122-13.919 1.21-1.261 2.337-2.589 3.393-3.967 1.345 1.765 2.802 3.452 4.388 5.031 2.47 2.459 5.152 4.594 7.989 6.412-6.875 15.544-10.126 31.818-10.126 50.492 0 5.523 4.477 10 10 10s10-4.477 10-10c0-16.266 2.869-30.305 8.971-43.651 1.846.23 3.711.36 5.595.36.315 0 .631-.003.947-.01 18.229-.037 33.766-9.011 41.915-22.54 3.665 8.017 9.456 14.882 16.932 19.897 8.243 5.529 17.585 8.175 26.835 8.174 15.492-.001 30.719-7.426 40.042-21.162l16.916-22.671c.287 6.776-.566 12.861-2.577 18.193zm40.133-101.972-70.644 94.679c-.1.134-.197.271-.29.41-4.188 6.244-10.596 10.491-18.043 11.958-7.448 1.468-14.988-.03-21.232-4.219-6.244-4.188-10.491-10.596-11.958-18.043-1.453-7.371 0-14.833 4.09-21.038l70.644-94.679c.1-.134.197-.271.29-.41 4.188-6.244 10.596-10.491 18.043-11.958 7.449-1.468 14.987.03 21.232 4.219 6.244 4.188 10.491 10.597 11.958 18.044 1.453 7.37 0 14.832-4.09 21.037z"/><path d="m226.333 398.608h-.007c-5.523 0-9.996 4.477-9.996 10s4.48 10 10.003 10 10-4.477 10-10-4.477-10-10-10z"/></g></g></svg>